<svg width="32" height="32" viewBox="0 0 32 32" fill="none" xmlns="http://www.w3.org/2000/svg">
  <rect width="32" height="32" rx="7" ry="7" fill="#0D0D0F"/>
  <g transform="translate(-0.582, 5.071) scale(0.1518)">
    <path d="M72.9516 142C65.0849 142 58.8182 140.133 54.1516 136.4C49.6182 132.533 47.3516 127.333 47.3516 120.8C47.3516 115.867 48.2849 111.6 50.1516 108C52.1516 104.267 55.8182 100.333 61.1516 96.2L141.152 34.2C143.152 32.6 144.552 31.2 145.352 30C146.285 28.6667 146.752 27.0667 146.752 25.2C146.752 21.6 144.218 19.8 139.152 19.8H63.1516C59.6849 19.8 56.8182 19.0667 54.5516 17.6C52.2849 16 51.1516 13.8 51.1516 11C51.1516 8.06666 52.2849 5.86667 54.5516 4.4C56.8182 2.8 59.6849 2 63.1516 2H143.952C151.952 2 158.218 3.86667 162.752 7.6C167.285 11.2 169.552 16.4 169.552 23.2C169.552 28.5333 168.618 32.9333 166.752 36.4C164.885 39.7333 161.218 43.4667 155.752 47.6L75.7516 109.8C73.7516 111.267 72.2849 112.733 71.3516 114.2C70.5516 115.533 70.1516 117.133 70.1516 119C70.1516 122.467 73.2849 124.2 79.5516 124.2H159.152C162.618 124.2 165.485 125 167.752 126.6C170.018 128.067 171.152 130.2 171.152 133C171.152 135.933 170.018 138.2 167.752 139.8C165.485 141.267 162.618 142 159.152 142H72.9516Z" fill="#4F46E5"/>
  </g>
</svg>
