<svg width="606" height="144" viewBox="0 0 606 144" fill="none" xmlns="http://www.w3.org/2000/svg">
<path d="M207.111 144C203.644 144 200.844 143.067 198.711 141.2C196.711 139.333 195.711 136.733 195.711 133.4V10.6C195.711 7.26667 196.711 4.66667 198.711 2.8C200.844 0.933337 203.644 0 207.111 0C210.444 0 213.178 1 215.311 3C217.444 4.86667 218.511 7.4 218.511 10.6V133.4C218.511 136.6 217.444 139.2 215.311 141.2C213.178 143.067 210.444 144 207.111 144Z" fill="black"/>
<path d="M72.9516 142C65.0849 142 58.8182 140.133 54.1516 136.4C49.6182 132.533 47.3516 127.333 47.3516 120.8C47.3516 115.867 48.2849 111.6 50.1516 108C52.1516 104.267 55.8182 100.333 61.1516 96.2L141.152 34.2C143.152 32.6 144.552 31.2 145.352 30C146.285 28.6667 146.752 27.0667 146.752 25.2C146.752 21.6 144.218 19.8 139.152 19.8H63.1516C59.6849 19.8 56.8182 19.0667 54.5516 17.6C52.2849 16 51.1516 13.8 51.1516 11C51.1516 8.06666 52.2849 5.86667 54.5516 4.4C56.8182 2.8 59.6849 2 63.1516 2H143.952C151.952 2 158.218 3.86667 162.752 7.6C167.285 11.2 169.552 16.4 169.552 23.2C169.552 28.5333 168.618 32.9333 166.752 36.4C164.885 39.7333 161.218 43.4667 155.752 47.6L75.7516 109.8C73.7516 111.267 72.2849 112.733 71.3516 114.2C70.5516 115.533 70.1516 117.133 70.1516 119C70.1516 122.467 73.2849 124.2 79.5516 124.2H159.152C162.618 124.2 165.485 125 167.752 126.6C170.018 128.067 171.152 130.2 171.152 133C171.152 135.933 170.018 138.2 167.752 139.8C165.485 141.267 162.618 142 159.152 142H72.9516Z" fill="#4F46E5"/>
<path d="M11.4 144C7.93333 144 5.13333 143.067 3 141.2C1 139.333 0 136.733 0 133.4V10.6C0 7.26667 1 4.66667 3 2.8C5.13333 0.933337 7.93333 0 11.4 0C14.7333 0 17.4667 1 19.6 3C21.7333 4.86667 22.8 7.4 22.8 10.6V133.4C22.8 136.6 21.7333 139.2 19.6 141.2C17.4667 143.067 14.7333 144 11.4 144Z" fill="black"/>
<path d="M493.747 144C490.28 144 487.547 143.067 485.547 141.2C483.547 139.333 482.547 136.733 482.547 133.4V10.6C482.547 7.26667 483.547 4.66667 485.547 2.8C487.547 0.933337 490.28 0 493.747 0C497.214 0 499.947 1 501.947 3C504.08 4.86667 505.147 7.4 505.147 10.6V61.2H582.347V10.6C582.347 7.4 583.347 4.86667 585.347 3C587.48 1 590.28 0 593.747 0C597.214 0 599.947 0.933337 601.947 2.8C604.08 4.66667 605.147 7.26667 605.147 10.6V133.4C605.147 136.733 604.08 139.333 601.947 141.2C599.947 143.067 597.214 144 593.747 144C590.28 144 587.48 143.067 585.347 141.2C583.347 139.2 582.347 136.6 582.347 133.4V79H505.147V133.4C505.147 136.6 504.08 139.2 501.947 141.2C499.947 143.067 497.214 144 493.747 144Z" fill="black"/>
<path d="M391.477 93.4028L386.675 93.3984L386.578 93.4001H363.978V133.2C363.978 136.533 362.845 139.2 360.578 141.2C358.445 143.067 355.645 144 352.178 144C348.578 144 345.711 143.067 343.578 141.2C341.578 139.2 340.578 136.533 340.578 133.2V30C340.578 21.3335 343.111 14.5334 348.178 9.6001C353.245 4.53345 360.378 2 369.578 2L391.479 2.00342H399.272C418.606 2.00342 433.174 5.99564 442.907 13.729C452.774 21.4623 457.707 32.8623 457.707 47.929C457.707 62.1957 453.374 73.2624 444.707 81.129C437.92 86.8332 430.333 90.2794 420.353 91.9404L454.782 126.475C456.915 128.608 457.982 130.941 457.982 133.475C457.982 136.275 456.648 138.808 453.982 141.075C451.448 142.941 448.982 143.875 446.582 143.875C443.248 143.875 440.048 142.275 436.982 139.075L392.908 93.4028H391.477ZM391.479 20.4034L372.978 20.4001C370.178 20.4001 367.978 21.3335 366.378 23.2002C364.778 24.9333 363.978 27.4001 363.978 30.6001V75L391.514 75.129H399.107C411.907 75.129 420.907 73.129 426.107 69.129C431.441 64.9957 434.107 57.929 434.107 47.929C434.107 38.1957 431.241 31.1957 425.507 26.929C419.774 22.6624 410.939 20.4034 399.072 20.4034H391.479Z" fill="black"/>
<path d="M249.841 81.0749C246.241 81.0749 243.441 80.2749 241.441 78.6749C239.574 77.0749 238.641 74.9416 238.641 72.2749C238.641 66.2749 242.374 63.2749 249.841 63.2749H309.241C316.707 63.2749 320.441 66.2749 320.441 72.2749C320.441 74.9416 319.441 77.0749 317.441 78.6749C315.574 80.2749 312.841 81.0749 309.241 81.0749H249.841Z" fill="black"/>
</svg>
